<?xml version="1.0" encoding="UTF-8"?> <svg xmlns="http://www.w3.org/2000/svg" width="505" height="504" viewBox="0 0 505 504" fill="none"> <path d="M286.471 298.068L283.656 295.672L284.879 299.16L345.033 470.803L264.397 307.197L262.791 303.94L262.503 307.56L248.229 486.954L240.252 306.467L240.095 302.923L238.378 306.027L152 462.14L218.204 296.01L219.498 292.761L216.682 294.834L73.0975 400.532L202.055 277.628L204.599 275.203L201.16 275.925L25.3203 312.856L194.601 254.489L197.994 253.32L194.485 252.566L16.9064 214.441L197.142 230.595L200.797 230.923L197.813 228.786L49.1453 122.329L209.24 210.086L212.489 211.867L210.578 208.693L116.383 52.2994L228.797 196.515L231.054 199.409L230.578 195.77L207.107 16.3414L252.423 192.223L253.318 195.698L254.349 192.26L305.783 20.7459L276.034 197.942L275.452 201.408L277.771 198.767L395.329 64.9179L295.558 212.682L293.601 215.58L296.795 214.155L460.096 141.249L307.624 233.905L304.593 235.747L308.14 235.76L488.802 236.39L310.137 257.948L306.531 258.383L309.852 259.855L476.602 333.771L302.654 280.647L299.119 279.567L301.627 282.282L425.755 416.63L286.471 298.068Z" stroke="#9A8C98" stroke-width="2"></path> </svg> 